# xmcd
#
# Track frame offsets:
#	150
#	15870
#	38126
#	53659
#	84662
#	100486
#	126264
#	147447
#	166482
#	185124
#	217332
#	236832
#
# Disc length: 3485 seconds
#
# Revision: 1
# Processed by: cddbd v1.5.2PL0 Copyright (c) Steve Scherf et al.
# Submitted via: audiograbber 1.83.01
#
DISCID=af0d9b0c
DTITLE=Tim Woods - The Blues Sessions
DYEAR=1900
DGENRE=
TTITLE0=Deep Ellum Blues
TTITLE1=Do The Do
TTITLE2=Castle Rock Boogie
TTITLE3=Bad Whiskey and Cocaine
TTITLE4=Spoonful
TTITLE5=Clarksdale Boogie
TTITLE6=Wind Howlin' Blues
TTITLE7=Built For Comfort
TTITLE8=Drop Down Mama
TTITLE9=It Don't Make Sence, You Can't Make Peace
TTITLE10=Who's Been Talking
TTITLE11=World Comes Tumblin' Down
EXTD=
EXTT0=
EXTT1=
EXTT2=
EXTT3=
EXTT4=
EXTT5=
EXTT6=
EXTT7=
EXTT8=
EXTT9=
EXTT10=
EXTT11=
PLAYORDER=
